<svg width="9" height="18" viewBox="0 0 9 18" fill="none" xmlns="http://www.w3.org/2000/svg">
<path d="M8.66109 0.0037452L6.50239 0C4.07718 0 2.5099 1.73871 2.5099 4.42983V6.47227H0.339433C0.15188 6.47227 0 6.63669 0 6.83949V9.79877C0 10.0016 0.152052 10.1658 0.339433 10.1658H2.5099V17.6329C2.5099 17.8357 2.66178 18 2.84934 18H5.68118C5.86874 18 6.02061 17.8356 6.02061 17.6329V10.1658H8.55838C8.74594 10.1658 8.89782 10.0016 8.89782 9.79877L8.89887 6.83949C8.89887 6.74211 8.86302 6.64886 8.79945 6.57995C8.7359 6.51103 8.64931 6.47227 8.55926 6.47227H6.02061V4.74087C6.02061 3.90868 6.204 3.48623 7.20654 3.48623L8.66074 3.48566C8.84812 3.48566 9 3.32124 9 3.11864V0.370775C9 0.168346 8.84829 0.00411972 8.66109 0.0037452Z" fill="currentColor"/>
</svg>
