<svg width="18" height="18" viewBox="0 0 18 18" fill="none" xmlns="http://www.w3.org/2000/svg">
<g clip-path="url(#clip0)">
<rect x="1.2002" y="1.19995" width="15.6" height="16.8" rx="4" fill="currentColor"/>
<path fill-rule="evenodd" clip-rule="evenodd" d="M12.1721 0H5.53278C2.47758 0 0 2.51887 0 5.625V12.375C0 15.4812 2.47758 18.5294 5.53278 18.5294H12.1721C15.2274 18.5294 17.705 15.4812 17.705 12.375V5.625C17.705 2.51887 15.2274 0 12.1721 0ZM16.045 12.375C16.045 14.5462 14.3078 16.3125 12.1721 16.3125H5.53278C3.39713 16.3125 1.65984 14.5462 1.65984 12.375V5.625C1.65984 3.45375 3.39713 1.6875 5.53278 1.6875H12.1721C14.3078 1.6875 16.045 3.45375 16.045 5.625V12.375ZM8.85246 4.5C6.40807 4.5 4.42623 6.51487 4.42623 9C4.42623 11.4851 6.40807 13.5 8.85246 13.5C11.2968 13.5 13.2787 11.4851 13.2787 9C13.2787 6.51487 11.2968 4.5 8.85246 4.5ZM8.85246 11.8125C7.32762 11.8125 6.08607 10.5502 6.08607 9C6.08607 7.44862 7.32762 6.1875 8.85246 6.1875C10.3773 6.1875 11.6188 7.44862 11.6188 9C11.6188 10.5502 10.3773 11.8125 8.85246 11.8125ZM14.2004 4.16248C14.2004 4.49365 13.9364 4.76211 13.6107 4.76211C13.2849 4.76211 13.0209 4.49365 13.0209 4.16248C13.0209 3.83133 13.2849 3.56286 13.6107 3.56286C13.9364 3.56286 14.2004 3.83133 14.2004 4.16248Z" fill="#F8F8F8"/>
</g>
<defs>
<clipPath id="clip0">
<rect width="18" height="18" fill="white"/>
</clipPath>
</defs>
</svg>
