<svg width="195" height="28" viewBox="0 0 195 28" fill="none" xmlns="http://www.w3.org/2000/svg">
<path d="M5.70802 18.8521C5.65202 18.5907 5.62402 18.0867 5.62402 17.3401C5.62402 16.5934 5.76402 15.8001 6.04402 14.9601H6.29602C6.27736 15.1654 6.26802 15.3707 6.26802 15.5761C6.26802 16.7147 6.61336 17.6667 7.30402 18.4321C7.99469 19.1787 8.90936 19.5521 10.048 19.5521C11.224 19.5521 12.1854 19.1974 12.932 18.4881C13.6974 17.7787 14.08 16.8921 14.08 15.8281C14.08 14.7454 13.716 13.8681 12.988 13.1961L7.61202 8.21206C6.60402 7.27872 6.10002 6.14939 6.10002 4.82406C6.10002 3.49872 6.53869 2.36939 7.41602 1.43606C8.31202 0.484057 9.51602 0.00805664 11.028 0.00805664C11.7374 0.00805664 12.54 0.10139 13.436 0.288056H14.528V3.73206H14.276C14.276 2.85472 13.968 2.15472 13.352 1.63206C12.7547 1.10939 11.98 0.848058 11.028 0.848058C10.076 0.848058 9.27336 1.16539 8.62002 1.80006C7.98536 2.43472 7.66802 3.22806 7.66802 4.18006C7.66802 5.13206 8.04136 5.95339 8.78802 6.64406L14.304 11.7401C15.2374 12.5987 15.704 13.7747 15.704 15.2681C15.704 16.7614 15.228 17.9934 14.276 18.9641C13.324 19.9161 12.0547 20.3921 10.468 20.3921C9.64669 20.3921 8.76936 20.2614 7.83602 20.0001C6.92136 19.7574 6.21202 19.3747 5.70802 18.8521Z" fill="currentColor"/>
<path d="M9.6399 22.9922C6.7839 22.9735 4.52524 22.1802 2.8639 20.6122C1.22124 19.0442 0.399902 16.9069 0.399902 14.2002C0.399902 11.4749 1.22124 9.3282 2.8639 7.7602C4.52524 6.1922 6.7839 5.4082 9.6399 5.4082C10.7972 5.4082 11.9639 5.55754 13.1399 5.8562C14.3159 6.15487 15.3332 6.56554 16.1919 7.0882L16.8079 11.0642H16.5559C15.7532 7.85354 13.4386 6.2482 9.6119 6.2482C7.39057 6.2482 5.6359 6.95754 4.3479 8.3762C3.0599 9.79487 2.4159 11.7362 2.4159 14.2002C2.4159 15.8055 2.70524 17.2055 3.2839 18.4002C3.86257 19.5762 4.70257 20.4909 5.8039 21.1442C6.90524 21.7975 8.1839 22.1242 9.6399 22.1242C11.0959 22.1242 12.3652 21.9095 13.4479 21.4802C14.5492 21.0322 15.4546 20.3042 16.1639 19.2962C16.8919 18.2882 17.3026 17.0375 17.3959 15.5442H17.6479L17.3399 19.3802C16.6119 20.5002 15.5572 21.3869 14.1759 22.0402C12.7946 22.6749 11.2826 22.9922 9.6399 22.9922Z" fill="currentColor"/>
<path d="M33.526 22.108C32.59 22.108 31.69 21.958 30.826 21.658C29.974 21.358 29.314 20.962 28.846 20.47L29.368 19.444C29.824 19.9 30.43 20.272 31.186 20.56C31.942 20.836 32.722 20.974 33.526 20.974C34.654 20.974 35.5 20.77 36.064 20.362C36.628 19.942 36.91 19.402 36.91 18.742C36.91 18.238 36.754 17.836 36.442 17.536C36.142 17.236 35.77 17.008 35.326 16.852C34.882 16.684 34.264 16.504 33.472 16.312C32.524 16.072 31.768 15.844 31.204 15.628C30.64 15.4 30.154 15.058 29.746 14.602C29.35 14.146 29.152 13.528 29.152 12.748C29.152 12.112 29.32 11.536 29.656 11.02C29.992 10.492 30.508 10.072 31.204 9.76C31.9 9.448 32.764 9.292 33.796 9.292C34.516 9.292 35.218 9.394 35.902 9.598C36.598 9.79 37.198 10.06 37.702 10.408L37.252 11.47C36.724 11.122 36.16 10.864 35.56 10.696C34.96 10.516 34.372 10.426 33.796 10.426C32.692 10.426 31.858 10.642 31.294 11.074C30.742 11.494 30.466 12.04 30.466 12.712C30.466 13.216 30.616 13.624 30.916 13.936C31.228 14.236 31.612 14.47 32.068 14.638C32.536 14.794 33.16 14.968 33.94 15.16C34.864 15.388 35.608 15.616 36.172 15.844C36.748 16.06 37.234 16.396 37.63 16.852C38.026 17.296 38.224 17.902 38.224 18.67C38.224 19.306 38.05 19.888 37.702 20.416C37.366 20.932 36.844 21.346 36.136 21.658C35.428 21.958 34.558 22.108 33.526 22.108ZM45.0322 16.078L42.4582 18.688V22H41.1262V9.4H42.4582V17.014L49.8562 9.4H51.3862L45.9322 15.106L51.7642 22H50.1802L45.0322 16.078ZM53.9231 9.4H55.2551V22H53.9231V9.4ZM69.8847 9.4V22H68.7867L60.6867 11.776V22H59.3547V9.4H60.4527L68.5707 19.624V9.4H69.8847ZM79.4693 22.108C78.2213 22.108 77.0933 21.832 76.0853 21.28C75.0893 20.728 74.3033 19.966 73.7273 18.994C73.1633 18.01 72.8813 16.912 72.8813 15.7C72.8813 14.488 73.1633 13.396 73.7273 12.424C74.3033 11.44 75.0953 10.672 76.1033 10.12C77.1113 9.568 78.2393 9.292 79.4873 9.292C80.4233 9.292 81.2873 9.448 82.0793 9.76C82.8713 10.072 83.5433 10.528 84.0953 11.128L83.2493 11.974C82.2653 10.978 81.0233 10.48 79.5233 10.48C78.5273 10.48 77.6213 10.708 76.8053 11.164C75.9893 11.62 75.3473 12.244 74.8793 13.036C74.4233 13.828 74.1953 14.716 74.1953 15.7C74.1953 16.684 74.4233 17.572 74.8793 18.364C75.3473 19.156 75.9893 19.78 76.8053 20.236C77.6213 20.692 78.5273 20.92 79.5233 20.92C81.0353 20.92 82.2773 20.416 83.2493 19.408L84.0953 20.254C83.5433 20.854 82.8653 21.316 82.0613 21.64C81.2693 21.952 80.4053 22.108 79.4693 22.108ZM94.5204 18.634H87.5004L85.9884 22H84.6024L90.3624 9.4H91.6764L97.4364 22H96.0324L94.5204 18.634ZM94.0344 17.554L91.0104 10.786L87.9864 17.554H94.0344ZM108.125 22L105.245 17.95C104.921 17.986 104.585 18.004 104.237 18.004H100.853V22H99.5208V9.4H104.237C105.845 9.4 107.105 9.784 108.017 10.552C108.929 11.32 109.385 12.376 109.385 13.72C109.385 14.704 109.133 15.538 108.629 16.222C108.137 16.894 107.429 17.38 106.505 17.68L109.583 22H108.125ZM104.201 16.87C105.449 16.87 106.403 16.594 107.063 16.042C107.723 15.49 108.053 14.716 108.053 13.72C108.053 12.7 107.723 11.92 107.063 11.38C106.403 10.828 105.449 10.552 104.201 10.552H100.853V16.87H104.201ZM121.439 20.848V22H112.529V9.4H121.169V10.552H113.861V15.034H120.377V16.168H113.861V20.848H121.439ZM139.811 9.4V22H138.497V16.186H130.613V22H129.281V9.4H130.613V15.016H138.497V9.4H139.811ZM149.431 22.108C148.183 22.108 147.049 21.832 146.029 21.28C145.021 20.716 144.229 19.948 143.653 18.976C143.089 18.004 142.807 16.912 142.807 15.7C142.807 14.488 143.089 13.396 143.653 12.424C144.229 11.452 145.021 10.69 146.029 10.138C147.049 9.574 148.183 9.292 149.431 9.292C150.679 9.292 151.801 9.568 152.797 10.12C153.805 10.672 154.597 11.44 155.173 12.424C155.749 13.396 156.037 14.488 156.037 15.7C156.037 16.912 155.749 18.01 155.173 18.994C154.597 19.966 153.805 20.728 152.797 21.28C151.801 21.832 150.679 22.108 149.431 22.108ZM149.431 20.92C150.427 20.92 151.327 20.698 152.131 20.254C152.935 19.798 153.565 19.174 154.021 18.382C154.477 17.578 154.705 16.684 154.705 15.7C154.705 14.716 154.477 13.828 154.021 13.036C153.565 12.232 152.935 11.608 152.131 11.164C151.327 10.708 150.427 10.48 149.431 10.48C148.435 10.48 147.529 10.708 146.713 11.164C145.909 11.608 145.273 12.232 144.805 13.036C144.349 13.828 144.121 14.716 144.121 15.7C144.121 16.684 144.349 17.578 144.805 18.382C145.273 19.174 145.909 19.798 146.713 20.254C147.529 20.698 148.435 20.92 149.431 20.92ZM164.099 22.108C162.467 22.108 161.195 21.64 160.283 20.704C159.371 19.768 158.915 18.406 158.915 16.618V9.4H160.247V16.564C160.247 18.028 160.577 19.12 161.237 19.84C161.897 20.56 162.851 20.92 164.099 20.92C165.359 20.92 166.319 20.56 166.979 19.84C167.639 19.12 167.969 18.028 167.969 16.564V9.4H169.265V16.618C169.265 18.406 168.809 19.768 167.897 20.704C166.997 21.64 165.731 22.108 164.099 22.108ZM176.753 22.108C175.817 22.108 174.917 21.958 174.053 21.658C173.201 21.358 172.541 20.962 172.073 20.47L172.595 19.444C173.051 19.9 173.657 20.272 174.413 20.56C175.169 20.836 175.949 20.974 176.753 20.974C177.881 20.974 178.727 20.77 179.291 20.362C179.855 19.942 180.137 19.402 180.137 18.742C180.137 18.238 179.981 17.836 179.669 17.536C179.369 17.236 178.997 17.008 178.553 16.852C178.109 16.684 177.491 16.504 176.699 16.312C175.751 16.072 174.995 15.844 174.431 15.628C173.867 15.4 173.381 15.058 172.973 14.602C172.577 14.146 172.379 13.528 172.379 12.748C172.379 12.112 172.547 11.536 172.883 11.02C173.219 10.492 173.735 10.072 174.431 9.76C175.127 9.448 175.991 9.292 177.023 9.292C177.743 9.292 178.445 9.394 179.129 9.598C179.825 9.79 180.425 10.06 180.929 10.408L180.479 11.47C179.951 11.122 179.387 10.864 178.787 10.696C178.187 10.516 177.599 10.426 177.023 10.426C175.919 10.426 175.085 10.642 174.521 11.074C173.969 11.494 173.693 12.04 173.693 12.712C173.693 13.216 173.843 13.624 174.143 13.936C174.455 14.236 174.839 14.47 175.295 14.638C175.763 14.794 176.387 14.968 177.167 15.16C178.091 15.388 178.835 15.616 179.399 15.844C179.975 16.06 180.461 16.396 180.857 16.852C181.253 17.296 181.451 17.902 181.451 18.67C181.451 19.306 181.277 19.888 180.929 20.416C180.593 20.932 180.071 21.346 179.363 21.658C178.655 21.958 177.785 22.108 176.753 22.108ZM193.263 20.848V22H184.353V9.4H192.993V10.552H185.685V15.034H192.201V16.168H185.685V20.848H193.263Z" fill="currentColor"/>
</svg>
