<svg width="17" height="11" viewBox="0 0 17 11" fill="none" xmlns="http://www.w3.org/2000/svg">
<path d="M16.6497 1.72124C16.4538 1.04818 15.8796 0.517618 15.1514 0.336384C13.8211 0 8.49981 0 8.49981 0C8.49981 0 3.17868 0 1.84838 0.323631C1.13419 0.504672 0.545984 1.04828 0.350087 1.72124C0 2.95055 0 5.5 0 5.5C0 5.5 0 8.0623 0.350087 9.27876C0.546193 9.95172 1.12019 10.4823 1.84849 10.6635C3.19269 11 8.50001 11 8.50001 11C8.50001 11 13.8211 11 15.1514 10.6764C15.8797 10.4952 16.4538 9.96467 16.6499 9.29171C16.9999 8.0623 16.9999 5.51295 16.9999 5.51295C16.9999 5.51295 17.0139 2.95055 16.6497 1.72124ZM6.80562 7.85527V3.14474L11.2306 5.5L6.80562 7.85527Z" fill="currentColor"/>
</svg>
